<?xml version="1.0" encoding="utf-8"?>
<!-- Generator: Adobe Illustrator 24.2.3, SVG Export Plug-In . SVG Version: 6.00 Build 0)  -->
<svg version="1.1" id="Layer_1" xmlns="http://www.w3.org/2000/svg" xmlns:xlink="http://www.w3.org/1999/xlink" x="0px" y="0px"
	 viewBox="0 0 300 300" style="enable-background:new 0 0 300 300;" xml:space="preserve">
<style type="text/css">
	.st0{fill:#A3A3A3;}
</style>
<path class="st0" d="M289,145.9c-2.5-3.3-62.8-79.9-139-79.9c-21.5,0-41.7,6.1-59.7,14.9L52.7,43.3c-2.6-2.6-6.8-2.6-9.4,0
	s-2.6,6.8,0,9.4l34.8,34.8C38.9,110.4,12.6,143.8,11,146c-1.8,2.4-1.8,5.7,0,8.1c2.5,3.3,62.8,79.9,139,79.9
	c21.5,0,41.7-6.1,59.7-14.9l37.6,37.6c1.3,1.3,3,1.9,4.7,1.9s3.4-0.6,4.7-1.9c2.6-2.6,2.6-6.8,0-9.4l-34.8-34.8
	c39.2-22.9,65.5-56.3,67.1-58.5C290.9,151.7,290.9,148.3,289,145.9z M150,220.7c-60.2,0-111.8-55.1-125.2-70.7
	c8.4-9.8,31.9-35.2,63.1-52.7l21,21C102.1,127.1,98,138,98,149.9c0,28.6,23.3,51.9,51.9,51.9c11.9,0,22.9-4.1,31.6-10.9l17.9,17.9
	C184.3,216,167.5,220.7,150,220.7z M181.6,172.2l-53.7-53.7c6.3-4.4,13.9-7.1,22.2-7.1c21.3,0,38.6,17.3,38.6,38.6
	C188.6,158.3,186,165.9,181.6,172.2z M172.2,181.6c-6.3,4.4-13.9,7.1-22.2,7.1c-21.3,0-38.6-17.3-38.6-38.6c0-8.3,2.6-15.9,7.1-22.2
	L172.2,181.6z M212.1,202.7l-21-21c6.8-8.8,10.9-19.7,10.9-31.6c0-28.6-23.3-51.9-51.9-51.9c-11.9,0-22.9,4.1-31.6,10.9L100.4,91
	c15.3-7,32.1-11.8,49.6-11.8c60.2,0,111.8,55.1,125.2,70.7C266.8,159.8,243.3,185.2,212.1,202.7z"/>
</svg>
