<?xml version="1.0" encoding="utf-8"?>
<!-- Generator: Adobe Illustrator 24.2.3, SVG Export Plug-In . SVG Version: 6.00 Build 0)  -->
<svg version="1.1" id="Layer_1" xmlns="http://www.w3.org/2000/svg" xmlns:xlink="http://www.w3.org/1999/xlink" x="0px" y="0px"
	 viewBox="0 0 300 300" style="enable-background:new 0 0 300 300;" xml:space="preserve">
<style type="text/css">
	.st0{fill:#A3A3A3;}
</style>
<path class="st0" d="M253.1,141.8H64.8l80.4-92.9c1.4-1.7,2.1-3.8,2-6c-0.2-2.2-1.2-4.2-2.8-5.6c-1.6-1.4-3.8-2.1-5.9-2
	c-2.2,0.2-4.2,1.2-5.6,2.8L40.6,144.6c-0.4,0.4-0.6,0.9-0.9,1.4l-0.5,0.9c-0.8,2-0.8,4.1,0,6l0.6,1.2c0.1,0.3,0.4,0.7,0.8,1.2
	l92.2,106.4c1.6,1.8,3.8,2.8,6.2,2.8c2,0,3.9-0.7,5.4-2c1.7-1.4,2.7-3.4,2.8-5.6c0.2-2.2-0.5-4.3-2-6l-80.4-92.9h188.4
	c4.5,0,8.2-3.7,8.2-8.2C261.4,145.5,257.7,141.8,253.1,141.8z"/>
</svg>
