<?xml version="1.0" encoding="utf-8"?>
<!-- Generator: Adobe Illustrator 24.2.3, SVG Export Plug-In . SVG Version: 6.00 Build 0)  -->
<svg version="1.1" id="Layer_1" xmlns="http://www.w3.org/2000/svg" xmlns:xlink="http://www.w3.org/1999/xlink" x="0px" y="0px"
	 viewBox="0 0 300 300" style="enable-background:new 0 0 300 300;" xml:space="preserve">
<style type="text/css">
	.st0{fill:#A3A3A3;}
</style>
<path class="st0" d="M163.5,150l92.4-92.4c3.7-3.7,3.7-9.7,0-13.5s-9.7-3.7-13.5,0L150,136.5L57.6,44.2c-3.7-3.7-9.7-3.7-13.5,0
	s-3.7,9.7,0,13.5l92.4,92.4l-92.4,92.4c-3.7,3.7-3.7,9.7,0,13.5c1.9,1.9,4.3,2.8,6.7,2.8c2.4,0,4.9-0.9,6.7-2.8l92.4-92.4l92.4,92.4
	c1.9,1.9,4.3,2.8,6.7,2.8c2.4,0,4.9-0.9,6.7-2.8c3.7-3.7,3.7-9.7,0-13.5L163.5,150z"/>
</svg>
