<?xml version="1.0" encoding="utf-8"?>
<!-- Generator: Adobe Illustrator 24.2.3, SVG Export Plug-In . SVG Version: 6.00 Build 0)  -->
<svg version="1.1" id="Layer_1" xmlns="http://www.w3.org/2000/svg" xmlns:xlink="http://www.w3.org/1999/xlink" x="0px" y="0px"
	 viewBox="0 0 300 300" style="enable-background:new 0 0 300 300;" xml:space="preserve">
<style type="text/css">
	.st0{fill:#A3A3A3;}
</style>
<path class="st0" d="M257.9,244.3L197.5,184c11.7-15,18.8-33.8,18.8-54.3c0-48.7-39.6-88.3-88.3-88.3S39.7,81,39.7,129.7
	c0,48.7,39.6,88.3,88.3,88.3c22.2,0,42.5-8.3,58-21.9l60,60c1.6,1.6,3.8,2.5,5.9,2.5s4.3-0.8,5.9-2.5
	C261.2,252.9,261.2,247.6,257.9,244.3z M128,201.3c-39.5,0-71.6-32.1-71.6-71.6c0-39.5,32.1-71.6,71.6-71.6s71.6,32.1,71.6,71.6
	C199.5,169.2,167.4,201.3,128,201.3z"/>
</svg>
