<?xml version="1.0" encoding="utf-8"?>
<!-- Generator: Adobe Illustrator 24.2.3, SVG Export Plug-In . SVG Version: 6.00 Build 0)  -->
<svg version="1.1" id="Layer_1" xmlns="http://www.w3.org/2000/svg" xmlns:xlink="http://www.w3.org/1999/xlink" x="0px" y="0px"
	 viewBox="0 0 300 300" style="enable-background:new 0 0 300 300;" xml:space="preserve">
<style type="text/css">
	.st0{fill:#A3A3A3;}
</style>
<g>
	<path class="st0" d="M289,145.9c-2.5-3.3-62.8-79.9-139-79.9S13.5,142.7,11,145.9c-1.8,2.4-1.8,5.7,0,8.1
		c2.5,3.3,62.8,79.9,139,79.9s136.5-76.6,139-79.9C290.9,151.7,290.9,148.3,289,145.9z M150,220.7c-60.2,0-111.8-55.1-125.2-70.7
		c13.4-15.6,65-70.7,125.2-70.7c60.1,0,111.8,55.1,125.2,70.7C261.8,165.6,210.2,220.7,150,220.7z"/>
	<path class="st0" d="M150,98.1c-28.6,0-51.9,23.3-51.9,51.9s23.3,51.9,51.9,51.9s51.9-23.3,51.9-51.9S178.6,98.1,150,98.1z
		 M150,188.6c-21.3,0-38.6-17.3-38.6-38.6s17.3-38.6,38.6-38.6s38.6,17.3,38.6,38.6S171.3,188.6,150,188.6z"/>
</g>
</svg>
