<?xml version="1.0" encoding="utf-8"?>
<!-- Generator: Adobe Illustrator 24.2.3, SVG Export Plug-In . SVG Version: 6.00 Build 0)  -->
<svg version="1.1" id="Layer_1" xmlns="http://www.w3.org/2000/svg" xmlns:xlink="http://www.w3.org/1999/xlink" x="0px" y="0px"
	 viewBox="0 0 300 300" style="enable-background:new 0 0 300 300;" xml:space="preserve">
<style type="text/css">
	.st0{fill:#1D775F;}
</style>
<g>
	<g>
		<path class="st0" d="M150,0.5C67.6,0.5,0.5,67.6,0.5,150c0,82.4,67.1,149.5,149.5,149.5S299.5,232.4,299.5,150
			C299.5,67.6,232.4,0.5,150,0.5z M150,286.3c-75.2,0-136.3-61.1-136.3-136.3C13.7,74.8,74.8,13.7,150,13.7
			c75.2,0,136.3,61.1,136.3,136.3C286.3,225.2,225.2,286.3,150,286.3z"/>
		<path class="st0" d="M218,111.1l-78.7,78.7l-42.4-42.4c-2.6-2.6-6.7-2.6-9.3,0c-2.6,2.6-2.6,6.8,0,9.3l47.1,47.1
			c1.3,1.3,3,1.9,4.7,1.9c1.7,0,3.4-0.6,4.7-1.9l83.3-83.3c2.6-2.6,2.6-6.8,0-9.3C224.7,108.6,220.6,108.6,218,111.1z"/>
	</g>
</g>
</svg>
