<?xml version="1.0" encoding="utf-8"?>
<!-- Generator: Adobe Illustrator 24.2.3, SVG Export Plug-In . SVG Version: 6.00 Build 0)  -->
<svg version="1.1" id="Layer_1" xmlns="http://www.w3.org/2000/svg" xmlns:xlink="http://www.w3.org/1999/xlink" x="0px" y="0px"
	 viewBox="0 0 300 300" style="enable-background:new 0 0 300 300;" xml:space="preserve">
<style type="text/css">
	.st0{fill:#997E2F;}
</style>
<g>
	<path class="st0" d="M88.8,146.3l54.6-54.6v132.6c0,3.6,3,6.6,6.6,6.6s6.6-3,6.6-6.6V91.6l54.6,54.6c2.6,2.6,6.8,2.6,9.3,0
		c2.6-2.6,2.6-6.8,0-9.3L154.7,71c-0.6-0.6-1.3-1.1-2.1-1.4c-0.8-0.3-1.7-0.5-2.5-0.5s-1.7,0.2-2.5,0.5c-0.8,0.3-1.5,0.8-2.1,1.4
		l-65.9,65.9c-2.6,2.6-2.6,6.8,0,9.3C82,148.9,86.2,148.9,88.8,146.3z"/>
	<path class="st0" d="M44.2,255.8c58.3,58.3,153.2,58.3,211.5,0c58.3-58.3,58.3-153.2,0-211.5C226.6,15.1,188.3,0.5,150,0.5
		c-38.3,0-76.6,14.6-105.8,43.7C-14.1,102.6-14.1,197.4,44.2,255.8z M53.6,53.6c53.2-53.2,139.7-53.2,192.9,0
		c53.2,53.2,53.2,139.7,0,192.9c-53.2,53.2-139.7,53.2-192.9,0C0.4,193.3,0.4,106.7,53.6,53.6z"/>
</g>
</svg>
