<?xml version="1.0" encoding="utf-8"?>
<!-- Generator: Adobe Illustrator 24.2.3, SVG Export Plug-In . SVG Version: 6.00 Build 0)  -->
<svg version="1.1" id="Layer_1" xmlns="http://www.w3.org/2000/svg" xmlns:xlink="http://www.w3.org/1999/xlink" x="0px" y="0px"
	 viewBox="0 0 300 300" style="enable-background:new 0 0 300 300;" xml:space="preserve">
<style type="text/css">
	.st0{fill:#997E2F;}
</style>
<g>
	<path class="st0" d="M150,0.5C67.6,0.5,0.5,67.6,0.5,150c0,82.4,67.1,149.5,149.5,149.5S299.5,232.4,299.5,150
		C299.5,67.6,232.4,0.5,150,0.5z M287.3,150c0,75.7-61.6,137.3-137.3,137.3S12.7,225.7,12.7,150S74.3,12.7,150,12.7
		S287.3,74.3,287.3,150z"/>
	<path class="st0" d="M205.4,124.2h-7.9v-7.7c0-26.3-21.3-47.7-47.5-47.7c-26.2,0-47.6,21.4-47.6,47.7v7.7h-7.8
		c-5.9,0-10.6,4.8-10.6,10.7v75.7c0,5.9,4.8,10.7,10.6,10.7h110.9c5.9,0,10.6-4.8,10.6-10.7v-75.7C216,129,211.3,124.2,205.4,124.2z
		 M114.4,124.2v-7.7c0-9.5,3.7-18.4,10.5-25.3c6.7-6.7,15.6-10.5,25.1-10.5c9.5,0,18.4,3.7,25.1,10.5c6.7,6.8,10.5,15.8,10.5,25.3
		v7.7H114.4z M204.1,136.2v72.9H95.9v-72.9H204.1z"/>
</g>
</svg>
