<?xml version="1.0" encoding="utf-8"?>
<!-- Generator: Adobe Illustrator 24.2.3, SVG Export Plug-In . SVG Version: 6.00 Build 0)  -->
<svg version="1.1" id="Layer_1" xmlns="http://www.w3.org/2000/svg" xmlns:xlink="http://www.w3.org/1999/xlink" x="0px" y="0px"
	 viewBox="0 0 300 300" style="enable-background:new 0 0 300 300;" xml:space="preserve">
<style type="text/css">
	.st0{fill:#9A3328;}
</style>
<g>
	<g>
		<path class="st0" d="M154.7,71c-0.6-0.6-1.3-1.1-2.1-1.4c-1.6-0.7-3.4-0.7-5,0c-0.8,0.3-1.5,0.8-2.1,1.4l-65.9,65.9
			c-2.6,2.6-2.6,6.8,0,9.3c2.6,2.6,6.8,2.6,9.3,0l54.6-54.6v132.7c0,3.6,3,6.6,6.6,6.6s6.6-3,6.6-6.6V91.6l54.6,54.6
			c1.3,1.3,3,1.9,4.7,1.9c1.7,0,3.4-0.6,4.7-1.9c2.6-2.6,2.6-6.8,0-9.3L154.7,71z"/>
		<path class="st0" d="M255.8,44.2c-58.3-58.3-153.2-58.3-211.5,0c-58.3,58.3-58.3,153.2,0,211.5c29.2,29.2,67.5,43.7,105.8,43.7
			s76.6-14.6,105.8-43.7C314.1,197.4,314.1,102.6,255.8,44.2z M246.4,246.4c-53.2,53.2-139.7,53.2-192.9,0
			c-53.2-53.2-53.2-139.7,0-192.9C80.2,27,115.1,13.7,150,13.7s69.8,13.3,96.4,39.9C299.6,106.7,299.6,193.3,246.4,246.4z"/>
	</g>
</g>
</svg>
