<?xml version="1.0" encoding="utf-8"?>
<!-- Generator: Adobe Illustrator 24.2.3, SVG Export Plug-In . SVG Version: 6.00 Build 0)  -->
<svg version="1.1" id="Layer_1" xmlns="http://www.w3.org/2000/svg" xmlns:xlink="http://www.w3.org/1999/xlink" x="0px" y="0px"
	 viewBox="0 0 300 300" style="enable-background:new 0 0 300 300;" xml:space="preserve">
<style type="text/css">
	.st0{fill:#1D775F;}
</style>
<g>
	<g>
		<path class="st0" d="M211.2,153.7l-54.6,54.6V75.7c0-3.6-3-6.6-6.6-6.6s-6.6,3-6.6,6.6v132.7l-54.6-54.6c-2.6-2.6-6.8-2.6-9.3,0
			c-2.6,2.6-2.6,6.8,0,9.3l65.9,65.9c0.6,0.6,1.3,1.1,2.1,1.4c0.8,0.3,1.7,0.5,2.5,0.5s1.7-0.2,2.5-0.5c0.8-0.3,1.5-0.8,2.1-1.4
			l65.9-65.9c2.6-2.6,2.6-6.8,0-9.3C218,151.1,213.8,151.1,211.2,153.7z"/>
		<path class="st0" d="M255.8,44.2c-58.3-58.3-153.2-58.3-211.5,0c-58.3,58.3-58.3,153.2,0,211.5c29.2,29.2,67.5,43.7,105.8,43.7
			s76.6-14.6,105.8-43.7C314.1,197.4,314.1,102.6,255.8,44.2z M246.4,246.4c-53.2,53.2-139.7,53.2-192.9,0
			c-53.2-53.2-53.2-139.7,0-192.9c53.2-53.2,139.7-53.2,192.9,0C299.6,106.7,299.6,193.3,246.4,246.4z"/>
	</g>
</g>
</svg>
