<?xml version="1.0" encoding="utf-8"?>
<!-- Generator: Adobe Illustrator 24.2.3, SVG Export Plug-In . SVG Version: 6.00 Build 0)  -->
<svg version="1.1" id="Layer_1" xmlns="http://www.w3.org/2000/svg" xmlns:xlink="http://www.w3.org/1999/xlink" x="0px" y="0px"
	 viewBox="0 0 300 300" style="enable-background:new 0 0 300 300;" xml:space="preserve">
<style type="text/css">
	.st0{opacity:0.75;fill:#676767;}
</style>
<g>
	<path class="st0" d="M255.8,44.2c-58.3-58.3-153.2-58.3-211.5,0c-58.3,58.3-58.3,153.2,0,211.5c29.2,29.2,67.5,43.7,105.8,43.7
		c38.3,0,76.6-14.6,105.8-43.7C314.1,197.4,314.1,102.6,255.8,44.2z M246.4,246.4c-53.2,53.2-139.7,53.2-192.9,0
		c-53.2-53.2-53.2-139.7,0-192.9c53.2-53.2,139.7-53.2,192.9,0C299.6,106.7,299.6,193.3,246.4,246.4z"/>
	<path class="st0" d="M213,87c-3.4-3.4-9-3.4-12.4,0L150,137.6L99.4,87c-3.4-3.4-9-3.4-12.4,0c-3.4,3.4-3.4,9,0,12.4l50.6,50.6
		L87,200.6c-3.4,3.4-3.4,9,0,12.4c1.7,1.7,4,2.6,6.2,2.6s4.5-0.9,6.2-2.6l50.6-50.6l50.6,50.6c1.7,1.7,4,2.6,6.2,2.6
		c2.3,0,4.5-0.9,6.2-2.6c3.4-3.4,3.4-9,0-12.4L162.4,150L213,99.4C216.5,96,216.5,90.4,213,87z"/>
</g>
</svg>
