<?xml version="1.0" encoding="utf-8"?>
<!-- Generator: Adobe Illustrator 24.2.3, SVG Export Plug-In . SVG Version: 6.00 Build 0)  -->
<svg version="1.1" id="Layer_1" xmlns="http://www.w3.org/2000/svg" xmlns:xlink="http://www.w3.org/1999/xlink" x="0px" y="0px"
	 viewBox="0 0 300 300" style="enable-background:new 0 0 300 300;" xml:space="preserve">
<style type="text/css">
	.st0{fill:#997E2F;}
</style>
<g>
	<path class="st0" d="M150,0.5C67.6,0.5,0.5,67.6,0.5,150c0,82.4,67.1,149.5,149.5,149.5S299.5,232.4,299.5,150
		C299.5,67.6,232.4,0.5,150,0.5z M150,286.3c-75.2,0-136.3-61.1-136.3-136.3C13.7,74.8,74.8,13.7,150,13.7S286.3,74.8,286.3,150
		C286.3,225.2,225.2,286.3,150,286.3z"/>
	<path class="st0" d="M159,55.9c-3.6,0-6.6,3-6.6,6.6v94.4L100,191.3c-3,2-3.9,6.1-1.9,9.1c1.3,1.9,3.4,3,5.5,3
		c1.2,0,2.5-0.4,3.6-1.1l55.4-36.4c0.2-0.1,0.3-0.3,0.5-0.5c0.4-0.3,0.7-0.6,1-0.9c0.3-0.3,0.5-0.7,0.7-1c0.2-0.4,0.3-0.7,0.5-1.1
		c0.1-0.4,0.2-0.9,0.3-1.3c0-0.2,0.1-0.4,0.1-0.6V62.5C165.6,58.8,162.6,55.9,159,55.9z"/>
</g>
</svg>
