<?xml version="1.0" encoding="utf-8"?>
<!-- Generator: Adobe Illustrator 24.2.3, SVG Export Plug-In . SVG Version: 6.00 Build 0)  -->
<svg version="1.1" id="Layer_1" xmlns="http://www.w3.org/2000/svg" xmlns:xlink="http://www.w3.org/1999/xlink" x="0px" y="0px"
	 viewBox="0 0 300 300" style="enable-background:new 0 0 300 300;" xml:space="preserve">
<style type="text/css">
	.st0{fill:#E0B13D;}
</style>
<g>
	<path class="st0" d="M230,223.1c-12.2,15.4-27.7,27.2-45.1,34.8c5.7-7.4,10.9-16,15.4-26.1c1.9-4.3-0.1-9.3-4.3-11.2
		c-4.3-1.9-9.3,0.1-11.2,4.3c-10.1,23-24,37.6-38.9,41.7V33.2c14.9,4.1,28.8,18.6,38.9,41.6c1.9,4.3,6.9,6.2,11.2,4.3
		c4.3-1.9,6.2-6.9,4.3-11.2c-4.4-10-9.6-18.6-15.3-25.9c17.1,7.5,32.5,19.1,44.6,34.2c2.9,3.7,8.3,4.3,11.9,1.3
		c3.7-2.9,4.2-8.3,1.3-11.9C216.9,33.5,178.5,15,137.3,15C65.5,15,6.8,71.3,2.7,142.1c-0.1,0.5-0.3,1-0.3,1.5s0.1,1,0.2,1.4
		c-0.1,1.7-0.3,3.3-0.3,5c0,74.4,60.6,135,135,135c41.6,0,80.2-18.7,106-51.4c2.9-3.7,2.3-9-1.4-11.9
		C238.2,218.8,232.9,219.4,230,223.1z M75.4,150c0-58.5,23.7-108.6,53.4-116.7v125.2c-20.7-0.2-38.4-1.2-53.2-2.8
		C75.5,153.7,75.4,151.9,75.4,150z M128.8,175.4v91.4c-25.7-7.1-47-45.6-52.2-93.9C96.4,174.7,115.8,175.2,128.8,175.4z M89.4,42.2
		c-18.9,24.4-31,63.2-31,107.8c0,1.2,0.1,2.3,0.1,3.5c-22.4-3.4-35.3-7.7-39-10.9C22.4,97.7,50.3,59.6,89.4,42.2z M19.8,161.4
		c10.5,4.4,24.6,7.4,39.7,9.4c3.1,35.8,14.1,66.4,30,87C51.4,240.9,23.9,204.6,19.8,161.4z"/>
	<path class="st0" d="M289.3,141.5h-87.6l24.4-24.4c3.3-3.3,3.3-8.7,0-12s-8.7-3.3-12,0L175.2,144l0,0c-0.1,0.1-0.2,0.3-0.3,0.5
		c-0.6,0.7-1.1,1.4-1.5,2.3c-0.2,0.6-0.3,1.2-0.4,1.7c-0.1,0.5-0.3,1-0.3,1.5l0,0l0,0c0,1.1,0.2,2.2,0.7,3.2
		c0.4,0.9,0.9,1.6,1.5,2.3c0.1,0.2,0.2,0.3,0.3,0.5l38.9,38.9c1.7,1.7,3.8,2.5,6,2.5s4.3-0.8,6-2.5c3.3-3.3,3.3-8.7,0-12l-24.4-24.4
		h87.6c4.7,0,8.5-3.8,8.5-8.5S294,141.5,289.3,141.5z"/>
</g>
</svg>
