<?xml version="1.0" encoding="utf-8"?>
<!-- Generator: Adobe Illustrator 24.2.3, SVG Export Plug-In . SVG Version: 6.00 Build 0)  -->
<svg version="1.1" id="Layer_1" xmlns="http://www.w3.org/2000/svg" xmlns:xlink="http://www.w3.org/1999/xlink" x="0px" y="0px"
	 viewBox="0 0 300 300" style="enable-background:new 0 0 300 300;" xml:space="preserve">
<style type="text/css">
	.st0{fill:#A3A3A3;}
</style>
<g>
	<path class="st0" d="M265.5,190.4c-4.1-1.7-8.9,0.2-10.6,4.3c-5.7,13.4-13.9,25.5-24.3,35.8c-21.5,21.5-50.1,33.3-80.5,33.3
		c-30.4,0-59-11.8-80.5-33.3c-10.4-10.4-18.6-22.7-24.3-36.1l35.4,11.9c0.9,0.3,1.7,0.4,2.6,0.4c3.4,0,6.5-2.1,7.7-5.5
		c1.4-4.2-0.8-8.8-5.1-10.3L32,172.8c-2.2-0.8-4.5-0.4-6.4,0.6c-2,0.9-3.6,2.5-4.4,4.8L3,232c-1.4,4.2,0.8,8.8,5.1,10.3
		c0.9,0.3,1.7,0.4,2.6,0.4c3.4,0,6.5-2.1,7.7-5.5l12.2-36.1c6.5,15.2,15.8,29.1,27.6,40.8c25.4,25.3,58.6,38,92,38s66.6-12.7,92-38
		c11.9-11.9,21.2-25.6,27.7-40.9C271.5,196.9,269.6,192.2,265.5,190.4z"/>
	<path class="st0" d="M291.9,57.8c-4.2-1.4-8.8,0.8-10.3,5.1l-12.2,36.1c-6.5-15.2-15.8-29.1-27.6-40.8
		c-24.6-24.6-57.2-38.1-92-38.1c-34.7,0-67.4,13.5-91.9,38.1C46.1,70,36.8,83.7,30.2,99c-1.8,4.1,0.2,8.9,4.3,10.6
		c4.1,1.8,8.9-0.2,10.6-4.3C50.8,92,59,79.9,69.4,69.5c21.5-21.5,50.1-33.3,80.5-33.3c30.4,0,59,11.8,80.5,33.3
		c10.4,10.4,18.6,22.7,24.3,36.1l-35.4-11.9c-4.2-1.4-8.8,0.8-10.3,5.1c-1.4,4.2,0.8,8.8,5.1,10.3l53.8,18.2
		c0.9,0.3,1.7,0.4,2.6,0.4c1.7,0,3.3-0.5,4.7-1.5c1.6-1,2.9-2.4,3.6-4.3L297,68C298.4,63.8,296.1,59.2,291.9,57.8z"/>
</g>
</svg>
