<?xml version="1.0" encoding="utf-8"?>
<!-- Generator: Adobe Illustrator 24.2.3, SVG Export Plug-In . SVG Version: 6.00 Build 0)  -->
<svg version="1.1" id="Layer_1" xmlns="http://www.w3.org/2000/svg" xmlns:xlink="http://www.w3.org/1999/xlink" x="0px" y="0px"
	 viewBox="0 0 300 300" style="enable-background:new 0 0 300 300;" xml:space="preserve">
<style type="text/css">
	.st0{fill:#A3A3A3;}
</style>
<g>
	<path class="st0" d="M176.5,170.8c0.2,0.3,0.5,0.4,0.7,0.6c0.3,0.3,0.5,0.7,0.8,1c0.4,0.3,0.9,0.5,1.3,0.7c0.3,0.2,0.6,0.4,1,0.6
		c1.2,0.5,2.4,0.8,3.7,0.8c0,0,0,0,0,0c0,0,0,0,0,0c1.2,0,2.5-0.3,3.6-0.8c0.4-0.1,0.7-0.3,1-0.5c0.4-0.2,0.9-0.4,1.3-0.7
		c0.3-0.3,0.5-0.7,0.8-1c0.2-0.2,0.5-0.3,0.8-0.6l91.4-113.6c3.3-4.1,2.7-10.2-1.5-13.5c-4.1-3.3-10.2-2.7-13.5,1.5l-83.8,104.2
		l-49.1-62.9c-3.3-4.2-9.3-4.9-13.5-1.7c-4.2,3.3-4.9,9.3-1.7,13.5L176.5,170.8z"/>
	<path class="st0" d="M275.4,197.5c-5.3,0-9.6,4.3-9.6,9.6v58.7H34.2V34.2h58.8c5.3,0,9.6-4.3,9.6-9.6S98.2,15,92.9,15H24.6
		c-5.3,0-9.6,4.3-9.6,9.6v250.8c0,5.3,4.3,9.6,9.6,9.6h250.8c5.3,0,9.6-4.3,9.6-9.6v-68.3C285,201.8,280.7,197.5,275.4,197.5z"/>
</g>
</svg>
