<?xml version="1.0" encoding="utf-8"?>
<!-- Generator: Adobe Illustrator 24.2.3, SVG Export Plug-In . SVG Version: 6.00 Build 0)  -->
<svg version="1.1" id="Layer_1" xmlns="http://www.w3.org/2000/svg" xmlns:xlink="http://www.w3.org/1999/xlink" x="0px" y="0px"
	 viewBox="0 0 300 300" style="enable-background:new 0 0 300 300;" xml:space="preserve">
<style type="text/css">
	.st0{fill:#E0B13D;}
</style>
<path class="st0" d="M284.7,145c0.1-0.5,0.2-0.9,0.2-1.4s-0.2-1-0.3-1.5C280.5,71.3,221.8,15,150,15S19.5,71.3,15.4,142.1
	c-0.1,0.5-0.3,1-0.3,1.5s0.1,0.9,0.2,1.4c-0.1,1.7-0.3,3.3-0.3,5c0,74.4,60.6,135,135,135s135-60.6,135-135
	C285,148.3,284.8,146.7,284.7,145z M267.7,142.5c-3.7,3.1-16.8,7.4-39,10.8c0-1.1,0.1-2.2,0.1-3.3c0-44.6-12.1-83.4-31-107.8
	C237,59.6,264.8,97.7,267.7,142.5z M88.1,150c0-58.5,23.7-108.6,53.4-116.8v125.1c-20.6-0.3-38.3-1.4-53.3-3
	C88.2,153.6,88.1,151.8,88.1,150z M141.5,175.3v91.4c-25.8-7.1-47-45.8-52.2-94.2C109.5,174.5,129.1,175.1,141.5,175.3z
	 M158.5,266.8v-91.4c12-0.2,31.7-0.7,52.2-2.7C205.5,221,184.2,259.7,158.5,266.8z M158.5,158.4V33.2c29.7,8.2,53.4,58.2,53.4,116.8
	c0,1.9-0.1,3.7-0.2,5.5C196.8,157.1,179,158.2,158.5,158.4z M102.2,42.2c-18.9,24.4-31,63.2-31,107.8c0,1.1,0.1,2.1,0.1,3.2
	c-22.1-3.4-35.2-7.7-39-10.8C35.2,97.6,63.1,59.6,102.2,42.2z M32.5,161.1c10.5,4.3,24.6,7.3,39.6,9.4c3.1,35.9,14.1,66.7,30,87.3
	C64.1,240.9,36.6,204.4,32.5,161.1z M197.8,257.8c15.9-20.6,26.9-51.4,30-87.2c15-2.1,29.2-5.1,39.7-9.5
	C263.4,204.4,235.9,240.9,197.8,257.8z"/>
</svg>
