<?xml version="1.0" encoding="utf-8"?>
<!-- Generator: Adobe Illustrator 24.2.3, SVG Export Plug-In . SVG Version: 6.00 Build 0)  -->
<svg version="1.1" id="Layer_1" xmlns="http://www.w3.org/2000/svg" xmlns:xlink="http://www.w3.org/1999/xlink" x="0px" y="0px"
	 viewBox="0 0 300 300" style="enable-background:new 0 0 300 300;" xml:space="preserve">
<style type="text/css">
	.st0{fill:#A3A3A3;}
</style>
<g>
	<path class="st0" d="M274.5,196.2c-5.8,0-10.5,4.7-10.5,10.5V264H36V36h57.4c5.8,0,10.5-4.7,10.5-10.5S99.1,15,93.3,15H25.5
		C19.7,15,15,19.7,15,25.5v249c0,5.8,4.7,10.5,10.5,10.5h249c5.8,0,10.5-4.7,10.5-10.5v-67.9C285,200.9,280.3,196.2,274.5,196.2z"/>
	<path class="st0" d="M284.2,21.5c-1.1-2.6-3.1-4.6-5.7-5.7c-1.3-0.5-2.6-0.8-4-0.8h-81.3c-5.8,0-10.5,4.7-10.5,10.5
		S187.4,36,193.2,36h56L142.6,142.6c-4.1,4.1-4.1,10.7,0,14.8c2,2,4.7,3.1,7.4,3.1c2.7,0,5.4-1,7.4-3.1L264,50.8v56
		c0,5.8,4.7,10.5,10.5,10.5c5.8,0,10.5-4.7,10.5-10.5V25.5C285,24.1,284.7,22.8,284.2,21.5z"/>
</g>
</svg>
