<?xml version="1.0" encoding="utf-8"?>
<!-- Generator: Adobe Illustrator 24.2.3, SVG Export Plug-In . SVG Version: 6.00 Build 0)  -->
<svg version="1.1" id="Layer_1" xmlns="http://www.w3.org/2000/svg" xmlns:xlink="http://www.w3.org/1999/xlink" x="0px" y="0px"
	 viewBox="0 0 300 300" style="enable-background:new 0 0 300 300;" xml:space="preserve">
<style type="text/css">
	.st0{fill:#E0B13D;}
</style>
<g>
	<path class="st0" d="M113.6,148l-3.8-2.3l3.1-3.3c16.8-18.1,27-40.6,29.6-65.1l0.3-3.3h20.1c4.7,0,8.6-3.8,8.6-8.6
		c0-4.7-3.8-8.6-8.6-8.6h-58V23.6c0-4.7-3.8-8.6-8.6-8.6s-8.6,3.8-8.6,8.6v33.3h-58c-4.7,0-8.6,3.8-8.6,8.6c0,4.7,3.8,8.6,8.6,8.6
		h20.1l0.3,3.3c2.5,24.4,12.8,46.9,29.6,65.1l3,3.3L79,148c-14.9,8.9-31.9,13.6-49.3,13.6c-4.7,0-8.6,3.8-8.6,8.6
		c0,4.7,3.8,8.6,8.6,8.6c23.1,0,45.4-7,64.5-20.2l2.1-1.5l2.1,1.5c16.6,11.5,35.9,18.4,56,19.9l5.2-16.9
		C143.3,160.9,127.4,156.2,113.6,148z M96.3,134.8l-2.6-2.7c-14.4-14.9-23.4-33.6-26.1-54L67.1,74h58.5l-0.5,4.1
		c-2.7,20.4-11.7,39.1-26.1,54L96.3,134.8z"/>
	<path class="st0" d="M233.7,128.9c-1.7-5.6-9.7-7.6-16-7.6c-6.2,0-14.1,2-15.8,7.6L157,275.1c-0.1,0.4-0.2,0.8-0.3,1.1
		c0,4.2,8,8.7,15.4,8.7c5.8,0,6.4-2.3,6.7-3.3l9.6-33.6H247l0.2,0.9l9.3,32.6c0.3,1,0.9,3.4,6.7,3.4c6.7,0,15.4-4.3,15.4-8.9
		c0-0.2-0.1-0.5-0.2-0.8L233.7,128.9z M192.7,231.7l25-88.2l25,88.2H192.7z"/>
</g>
</svg>
