<?xml version="1.0" encoding="utf-8"?>
<!-- Generator: Adobe Illustrator 24.2.3, SVG Export Plug-In . SVG Version: 6.00 Build 0)  -->
<svg version="1.1" id="Layer_1" xmlns="http://www.w3.org/2000/svg" xmlns:xlink="http://www.w3.org/1999/xlink" x="0px" y="0px"
	 viewBox="0 0 300 300" style="enable-background:new 0 0 300 300;" xml:space="preserve">
<style type="text/css">
	.st0{fill:#E0B13D;}
</style>
<g>
	<path class="st0" d="M187.1,268.1H31.9V31.9H187c4.7,0,8.5-3.8,8.5-8.5s-3.8-8.5-8.5-8.5H23.5c-4.7,0-8.5,3.8-8.5,8.5v253.1
		c0,4.7,3.8,8.5,8.5,8.5h163.6c4.7,0,8.5-3.8,8.5-8.5C195.5,271.8,191.7,268.1,187.1,268.1z"/>
	<path class="st0" d="M284.4,153.2c0.4-0.9,0.6-1.9,0.6-2.9c0-0.1,0.1-0.2,0.1-0.3s-0.1-0.2-0.1-0.3c0-1-0.2-2-0.6-2.9
		s-0.9-1.6-1.5-2.3c-0.1-0.2-0.2-0.3-0.3-0.5l-58.4-58.4c-3.3-3.3-8.7-3.3-12,0s-3.3,8.7,0,12l43.9,43.9H97.6
		c-4.7,0-8.5,3.8-8.5,8.5s3.8,8.5,8.5,8.5h158.5l-43.9,43.9c-3.3,3.3-3.3,8.7,0,12c1.7,1.7,3.8,2.5,6,2.5s4.3-0.8,6-2.5l58.4-58.4
		c0.1-0.1,0.2-0.3,0.3-0.5C283.4,154.8,284,154.1,284.4,153.2z"/>
</g>
</svg>
